<?xml version="1.0" encoding="utf-8"?>
<!-- Generator: Adobe Illustrator 19.0.1, SVG Export Plug-In . SVG Version: 6.00 Build 0)  -->
<svg version="1.1" id="Layer_1" xmlns="http://www.w3.org/2000/svg" xmlns:xlink="http://www.w3.org/1999/xlink" x="0px" y="0px"
	 viewBox="0 0 179.7 125" enable-background="new 0 0 179.7 125" xml:space="preserve">
<g>
	<path fill="#1c2834" d="M90.2,32.5c-10.7,37.7-38.7,56-56.8,57.3c-3.9,14.1-8,28.2-9.5,32.5c-3,5.7-18.2,1.2-18-3.2
		c4.3-18.4,21.2-82.3,24.3-94.4c-4.1,0.9-19.6,4.3-28,6.1c-3.4-3.2-2.9-17,2-21.4C37.7-1.5,75-1.9,85.5,3.1
		C91.1,5.6,92.8,22.9,90.2,32.5z M67.7,19.2c-2.9,0-13.2,2-16.8,2.5c-1.4,7-7.1,28.9-12.5,49.1C58.8,67,84.6,18.8,67.7,19.2z"/>
	<path fill="#1c2834" d="M122.5,87.7c-3.2,8.7-7.5,18.6-11.4,23.9c-6.8,9.1-14.6,15.9-24.5,12.5c-8.7-2.9-11.8-13.2-8.9-27.7
		C79.3,86.3,88,56.6,89.8,53.3c1.4-3,7.3-2.3,11.6-0.9c4.1,1.4,9.1,4.5,8.9,8.9c-1.8,4.8-8.9,24.1-12,34.1
		c-4.5,14.3,1.6,16.4,10,0.4c2-3.6,3.7-7.5,5.5-11.6C116.4,79.7,123.7,83.1,122.5,87.7z M95.3,35c2.5-6.4,9.6-10.5,17.8-6.2
		c0.7,1.6,0.5,3.2-0.4,4.3c3.6,1.4,6.6,5.9,4.8,12c-2.1,6.6-9.8,8.9-16.1,5.9C95.3,48.1,93,41.1,95.3,35z M105.3,42.7
		c2,0.9,4.1,0.5,4.8-1.2c0.9-2-1.8-4.3-3.4-4.6c-0.5-0.5-0.4-1.2,0.2-1.8c-1.4,0.2-2.9,1.2-3.6,3C102.7,39.9,103.4,41.8,105.3,42.7z
		"/>
	<path fill="#1c2834" d="M179.6,87.7c-3.4,8.7-7.7,18.6-11.6,23.9c-6.6,9.1-14.3,16.6-23.6,12c-7.7-3.7-9.1-15.7-5.4-30.2
		c0,0.2,0,0.2,0,0.4c-5,10.4-13.4,28.2-14.8,29.6c-5.9,3.9-18.4,0-18.2-7c0.9-10.5,14.6-59.8,15.2-63.2c3.4-2.5,15.5,0.2,16.8,6.6
		c-1.2,5.5-8,27.7-9.5,32.3c2.7-5.2,14.1-30.3,17.3-36.6c1.6-3,5.7-4.3,10.2-4.1c6.4,0,13.4,2.9,13.2,7.1
		c-1.2,3.9-12.3,30.7-14.1,36.8c-4.3,14.3,2,16.6,10.4,0.4c1.8-3.6,3.7-7.5,5.4-11.6C173.5,79.7,180.8,83.1,179.6,87.7z"/>
</g>
</svg>
